<mxfile host="app.diagrams.net" modified="2020-06-12T00:17:58.572Z" agent="5.0 (Windows NT 10.0; WOW64) AppleWebKit/537.36 (KHTML, like Gecko) Chrome/81.0.4044.138 Safari/537.36" etag="7myZ_RgcSO1emEdel7Yw" version="13.2.3" type="github">
  <diagram id="ELppnWBIXuhoEV6mVYmM" name="第 1 页">
    <mxGraphModel dx="1422" dy="762" grid="1" gridSize="10" guides="1" tooltips="1" connect="1" arrows="1" fold="1" page="1" pageScale="1" pageWidth="1169" pageHeight="1654" math="0" shadow="0">
      <root>
        <mxCell id="0" />
        <mxCell id="1" parent="0" />
        <mxCell id="YH7cNTz-7xb7_cwBINcV-3" value="" style="edgeStyle=orthogonalEdgeStyle;rounded=0;orthogonalLoop=1;jettySize=auto;html=1;" edge="1" parent="1" source="YH7cNTz-7xb7_cwBINcV-1" target="YH7cNTz-7xb7_cwBINcV-2">
          <mxGeometry relative="1" as="geometry" />
        </mxCell>
        <mxCell id="YH7cNTz-7xb7_cwBINcV-1" value="打开种类种植信息表" style="rounded=0;whiteSpace=wrap;html=1;" vertex="1" parent="1">
          <mxGeometry x="500" y="160" width="120" height="40" as="geometry" />
        </mxCell>
        <mxCell id="YH7cNTz-7xb7_cwBINcV-5" value="" style="edgeStyle=orthogonalEdgeStyle;rounded=0;orthogonalLoop=1;jettySize=auto;html=1;" edge="1" parent="1" source="YH7cNTz-7xb7_cwBINcV-2" target="YH7cNTz-7xb7_cwBINcV-4">
          <mxGeometry relative="1" as="geometry" />
        </mxCell>
        <mxCell id="YH7cNTz-7xb7_cwBINcV-2" value="读取第一行作为种类编号" style="rounded=0;whiteSpace=wrap;html=1;" vertex="1" parent="1">
          <mxGeometry x="500" y="230" width="120" height="41" as="geometry" />
        </mxCell>
        <mxCell id="YH7cNTz-7xb7_cwBINcV-11" style="edgeStyle=orthogonalEdgeStyle;rounded=0;orthogonalLoop=1;jettySize=auto;html=1;entryX=0.5;entryY=0;entryDx=0;entryDy=0;" edge="1" parent="1" source="YH7cNTz-7xb7_cwBINcV-4" target="YH7cNTz-7xb7_cwBINcV-6">
          <mxGeometry relative="1" as="geometry" />
        </mxCell>
        <mxCell id="YH7cNTz-7xb7_cwBINcV-4" value="读取第二行作为种类名称" style="rounded=0;whiteSpace=wrap;html=1;" vertex="1" parent="1">
          <mxGeometry x="500" y="300" width="120" height="40" as="geometry" />
        </mxCell>
        <mxCell id="YH7cNTz-7xb7_cwBINcV-12" style="edgeStyle=orthogonalEdgeStyle;rounded=0;orthogonalLoop=1;jettySize=auto;html=1;" edge="1" parent="1" source="YH7cNTz-7xb7_cwBINcV-6" target="YH7cNTz-7xb7_cwBINcV-10">
          <mxGeometry relative="1" as="geometry" />
        </mxCell>
        <mxCell id="YH7cNTz-7xb7_cwBINcV-17" style="edgeStyle=orthogonalEdgeStyle;rounded=0;orthogonalLoop=1;jettySize=auto;html=1;entryX=0.5;entryY=0;entryDx=0;entryDy=0;" edge="1" parent="1" source="YH7cNTz-7xb7_cwBINcV-6" target="YH7cNTz-7xb7_cwBINcV-20">
          <mxGeometry relative="1" as="geometry">
            <mxPoint x="650" y="560" as="targetPoint" />
            <Array as="points">
              <mxPoint x="650" y="395" />
              <mxPoint x="650" y="540" />
              <mxPoint x="560" y="540" />
            </Array>
          </mxGeometry>
        </mxCell>
        <mxCell id="YH7cNTz-7xb7_cwBINcV-6" value="当文件未读完时" style="rhombus;whiteSpace=wrap;html=1;" vertex="1" parent="1">
          <mxGeometry x="495" y="370" width="130" height="50" as="geometry" />
        </mxCell>
        <mxCell id="YH7cNTz-7xb7_cwBINcV-15" style="edgeStyle=orthogonalEdgeStyle;rounded=0;orthogonalLoop=1;jettySize=auto;html=1;entryX=0;entryY=0.5;entryDx=0;entryDy=0;" edge="1" parent="1" source="YH7cNTz-7xb7_cwBINcV-10" target="YH7cNTz-7xb7_cwBINcV-6">
          <mxGeometry relative="1" as="geometry">
            <Array as="points">
              <mxPoint x="560" y="510" />
              <mxPoint x="475" y="510" />
              <mxPoint x="475" y="395" />
            </Array>
          </mxGeometry>
        </mxCell>
        <mxCell id="YH7cNTz-7xb7_cwBINcV-10" value="读取下一行，分别作为每个种类的蔬菜结点" style="rounded=0;whiteSpace=wrap;html=1;" vertex="1" parent="1">
          <mxGeometry x="497.5" y="450" width="125" height="40" as="geometry" />
        </mxCell>
        <mxCell id="YH7cNTz-7xb7_cwBINcV-13" value="是" style="text;html=1;align=center;verticalAlign=middle;resizable=0;points=[];autosize=1;" vertex="1" parent="1">
          <mxGeometry x="530" y="420" width="30" height="20" as="geometry" />
        </mxCell>
        <mxCell id="YH7cNTz-7xb7_cwBINcV-19" style="edgeStyle=orthogonalEdgeStyle;rounded=0;orthogonalLoop=1;jettySize=auto;html=1;entryX=0.5;entryY=0;entryDx=0;entryDy=0;" edge="1" parent="1" source="YH7cNTz-7xb7_cwBINcV-18" target="YH7cNTz-7xb7_cwBINcV-1">
          <mxGeometry relative="1" as="geometry" />
        </mxCell>
        <mxCell id="YH7cNTz-7xb7_cwBINcV-18" value="开始" style="rounded=1;whiteSpace=wrap;html=1;" vertex="1" parent="1">
          <mxGeometry x="520" y="100" width="80" height="30" as="geometry" />
        </mxCell>
        <mxCell id="YH7cNTz-7xb7_cwBINcV-20" value="结束" style="rounded=1;whiteSpace=wrap;html=1;" vertex="1" parent="1">
          <mxGeometry x="520" y="570" width="80" height="30" as="geometry" />
        </mxCell>
        <mxCell id="YH7cNTz-7xb7_cwBINcV-21" value="否" style="text;html=1;align=center;verticalAlign=middle;resizable=0;points=[];autosize=1;" vertex="1" parent="1">
          <mxGeometry x="625" y="370" width="30" height="20" as="geometry" />
        </mxCell>
      </root>
    </mxGraphModel>
  </diagram>
</mxfile>
